# xmcd
#
# Track frame offsets:
#	150
#	14124
#	27072
#	42661
#	56017
#	73072
#	88230
#	98917
#	113250
#	129088
#	144444
#	162294
#	176476
#	188665
#	211235
#
# Disc length: 3050 seconds
#
# Revision: 0
# Processed by: cddbd v1.5.2PL0 Copyright (c) Steve Scherf et al.
# Submitted via: audiograbber 1.83.01
#
DISCID=ca0be80f
DTITLE=Various Artist - 15 Of The Best - Country Classics
DYEAR=2008
DGENRE=Country
TTITLE0=Dwight Yoakam - Guitars, Cadillacs
TTITLE1=John Michael Montgomery - Be My Baby Tonight
TTITLE2=Randy Travis - High Lonesome
TTITLE3=Travis Tritt - Son Of The New South
TTITLE4=Southern Pacific - New Shade Of Blue
TTITLE5=Nitty Gritty Dirt Band - Fishin' In The Dark
TTITLE6=George Jones - Ain't Love A Lot Like That
TTITLE7=Clarence Carter - Patches
TTITLE8=Maria Muldaur - My Tennessee Mountain Home
TTITLE9=Micheal Martin Murphy - Long Line Of Love
TTITLE10=Linda Ronstadt - Blue Bayou
TTITLE11=Eddie Rabbitt - I Love A Rainy Night
TTITLE12=Johnny Lee - Hey Bartender
TTITLE13=Iris Dement - Our Town
TTITLE14=Orleans - Still The One
EXTD=
EXTT0=
EXTT1=
EXTT2=
EXTT3=
EXTT4=
EXTT5=
EXTT6=
EXTT7=
EXTT8=
EXTT9=
EXTT10=
EXTT11=
EXTT12=
EXTT13=
EXTT14=
PLAYORDER=
